REM DIRINDEX 1\2,1\3,1\4,1\5
REM DIRNAME cjc004,folder01,folder02,folder03,folder04
TITLE ""
FILE "1Q_t_1610-1619.mp3" MP3
  TRACK 01 AUDIO
    TITLE "3:cjc004_5736"
    INDEX 01 00:00:00
  TRACK 02 AUDIO
    TITLE "0:"
    INDEX 01 00:00:60
  TRACK 03 AUDIO
    TITLE "4:cjc004_5737"
    INDEX 01 00:01:13
  TRACK 04 AUDIO
    TITLE "0:"
    INDEX 01 00:02:20
  TRACK 05 AUDIO
    TITLE "5:cjc004_5738"
    INDEX 01 00:02:42
  TRACK 06 AUDIO
    TITLE "0:"
    INDEX 01 00:07:13
  TRACK 07 AUDIO
    TITLE "3:cjc004_5739"
    INDEX 01 00:07:62
  TRACK 08 AUDIO
    TITLE "0:"
    INDEX 01 00:08:66
  TRACK 09 AUDIO
    TITLE "4:cjc004_5740"
    INDEX 01 00:09:20
  TRACK 10 AUDIO
    TITLE "0:"
    INDEX 01 00:10:55
  TRACK 11 AUDIO
    TITLE "5:cjc004_5741"
    INDEX 01 00:11:07
  TRACK 12 AUDIO
    TITLE "0:"
    INDEX 01 00:15:44
  TRACK 13 AUDIO
    TITLE "3:cjc004_5742"
    INDEX 01 00:16:28
  TRACK 14 AUDIO
    TITLE "0:"
    INDEX 01 00:17:41
  TRACK 15 AUDIO
    TITLE "4:cjc004_5743"
    INDEX 01 00:17:69
  TRACK 16 AUDIO
    TITLE "0:"
    INDEX 01 00:19:42
  TRACK 17 AUDIO
    TITLE "5:cjc004_5744"
    INDEX 01 00:19:69
  TRACK 18 AUDIO
    TITLE "0:"
    INDEX 01 00:24:47
  TRACK 19 AUDIO
    TITLE "3:cjc004_5745"
    INDEX 01 00:25:25
  TRACK 20 AUDIO
    TITLE "0:"
    INDEX 01 00:26:38
  TRACK 21 AUDIO
    TITLE "4:cjc004_5746"
    INDEX 01 00:26:67
  TRACK 22 AUDIO
    TITLE "0:"
    INDEX 01 00:28:19
  TRACK 23 AUDIO
    TITLE "5:cjc004_5747"
    INDEX 01 00:28:49
  TRACK 24 AUDIO
    TITLE "0:"
    INDEX 01 00:32:43
  TRACK 25 AUDIO
    TITLE "3:cjc004_5748"
    INDEX 01 00:33:22
  TRACK 26 AUDIO
    TITLE "0:"
    INDEX 01 00:34:34
  TRACK 27 AUDIO
    TITLE "4:cjc004_5749"
    INDEX 01 00:34:63
  TRACK 28 AUDIO
    TITLE "0:"
    INDEX 01 00:36:25
  TRACK 29 AUDIO
    TITLE "5:cjc004_5750"
    INDEX 01 00:36:54
  TRACK 30 AUDIO
    TITLE "0:"
    INDEX 01 00:43:64
  TRACK 31 AUDIO
    TITLE "3:cjc004_5751"
    INDEX 01 00:44:40
  TRACK 32 AUDIO
    TITLE "0:"
    INDEX 01 00:45:57
  TRACK 33 AUDIO
    TITLE "4:cjc004_5752"
    INDEX 01 00:46:09
  TRACK 34 AUDIO
    TITLE "0:"
    INDEX 01 00:47:17
  TRACK 35 AUDIO
    TITLE "5:cjc004_5753"
    INDEX 01 00:47:48
  TRACK 36 AUDIO
    TITLE "0:"
    INDEX 01 00:53:53
  TRACK 37 AUDIO
    TITLE "3:cjc004_5754"
    INDEX 01 00:54:32
  TRACK 38 AUDIO
    TITLE "0:"
    INDEX 01 00:55:46
  TRACK 39 AUDIO
    TITLE "4:cjc004_5755"
    INDEX 01 00:56:04
  TRACK 40 AUDIO
    TITLE "0:"
    INDEX 01 00:57:25
  TRACK 41 AUDIO
    TITLE "5:cjc004_5756"
    INDEX 01 00:57:50
  TRACK 42 AUDIO
    TITLE "0:"
    INDEX 01 01:02:54
  TRACK 43 AUDIO
    TITLE "3:cjc004_5757"
    INDEX 01 01:03:37
  TRACK 44 AUDIO
    TITLE "0:"
    INDEX 01 01:04:48
  TRACK 45 AUDIO
    TITLE "4:cjc004_5758"
    INDEX 01 01:05:03
  TRACK 46 AUDIO
    TITLE "0:"
    INDEX 01 01:06:28
  TRACK 47 AUDIO
    TITLE "5:cjc004_5759"
    INDEX 01 01:06:59
  TRACK 48 AUDIO
    TITLE "0:"
    INDEX 01 01:10:26
  TRACK 49 AUDIO
    TITLE "3:cjc004_5760"
    INDEX 01 01:11:05
  TRACK 50 AUDIO
    TITLE "0:"
    INDEX 01 01:12:24
  TRACK 51 AUDIO
    TITLE "4:cjc004_5761"
    INDEX 01 01:12:52
  TRACK 52 AUDIO
    TITLE "0:"
    INDEX 01 01:14:08
  TRACK 53 AUDIO
    TITLE "5:cjc004_5762"
    INDEX 01 01:14:31
  TRACK 54 AUDIO
    TITLE "0:"
    INDEX 01 01:17:18
  TRACK 55 AUDIO
    TITLE "3:cjc004_5763"
    INDEX 01 01:17:67
  TRACK 56 AUDIO
    TITLE "0:"
    INDEX 01 01:19:05
  TRACK 57 AUDIO
    TITLE "4:cjc004_5764"
    INDEX 01 01:19:32
  TRACK 58 AUDIO
    TITLE "0:"
    INDEX 01 01:21:33
  TRACK 59 AUDIO
    TITLE "5:cjc004_5765"
    INDEX 01 01:21:57
  TRACK 60 AUDIO
    TITLE "0:"
    INDEX 01 01:26:01
